<svg display="none" xmlns="http://www.w3.org/2000/svg">
    <symbol id="login" viewBox="0 0 36 36">
        <g>
	        <path d="M18 6.59265C19.5127 6.59265 20.9635 7.19358 22.0331 8.26323C23.1028 9.33288 23.7037 10.7836 23.7037 12.2964C23.7037 13.8091 23.1028 15.2598 22.0331 16.3295C20.9635 17.3991 19.5127 18.0001 18 18.0001C16.4873 18.0001 15.0365 17.3991 13.9669 16.3295C12.8972 15.2598 12.2963 13.8091 12.2963 12.2964C12.2963 10.7836 12.8972 9.33288 13.9669 8.26323C15.0365 7.19358 16.4873 6.59265 18 6.59265ZM18 20.8519C24.3026 20.8519 29.4074 23.4043 29.4074 26.5556V29.4075H6.59259V26.5556C6.59259 23.4043 11.6974 20.8519 18 20.8519Z" fill="white"/>
        </g>
    </symbol>
    <symbol id="call" viewBox="0 0 28 28">
        <g>
	        <circle opacity="0.2" cx="14" cy="14" r="14" fill="white"/>
            <path d="M18.865 22.72C18.6969 22.7195 18.5292 22.7011 18.365 22.665C15.2383 22.0182 12.3578 20.5017 10.055 18.29C7.80134 16.0734 6.2383 13.2513 5.55501 10.165C5.47444 9.78033 5.49421 9.38143 5.61243 9.00664C5.73064 8.63185 5.94332 8.29379 6.23001 8.02498L8.23001 6.09998C8.33216 6.00337 8.45354 5.92939 8.58621 5.88287C8.71889 5.83635 8.85989 5.81832 9.00001 5.82998C9.14529 5.84514 9.28549 5.89194 9.41074 5.96709C9.536 6.04224 9.64326 6.14392 9.72501 6.26498L12.225 9.95998C12.3188 10.1034 12.364 10.273 12.3541 10.444C12.3442 10.6151 12.2797 10.7784 12.17 10.91L10.915 12.41C11.4148 13.5162 12.1227 14.516 13 15.355C13.8717 16.2244 14.9019 16.9186 16.035 17.4L17.59 16.165C17.7206 16.0618 17.8795 16.0007 18.0457 15.99C18.2118 15.9793 18.3772 16.0194 18.52 16.105L22.295 18.545C22.4246 18.6223 22.5349 18.728 22.6178 18.854C22.7007 18.9801 22.7541 19.1233 22.7738 19.2729C22.7935 19.4225 22.7791 19.5746 22.7317 19.7178C22.6843 19.861 22.6051 19.9917 22.5 20.1L20.55 22.03C20.3285 22.2504 20.0656 22.4248 19.7764 22.5432C19.4872 22.6617 19.1775 22.7217 18.865 22.72ZM8.92001 6.81998L6.92001 8.74498C6.75873 8.89525 6.63935 9.08492 6.5736 9.29532C6.50785 9.50572 6.49799 9.72962 6.54501 9.94498C7.18037 12.841 8.64087 15.4911 10.75 17.575C12.9171 19.6558 15.6278 21.0822 18.57 21.69C18.7927 21.7365 19.0235 21.7271 19.2416 21.6625C19.4598 21.598 19.6585 21.4803 19.82 21.32L21.77 19.39L18.125 17.035L16.455 18.365C16.3911 18.4156 16.3157 18.4498 16.2356 18.4646C16.1554 18.4794 16.0728 18.4744 15.995 18.45C14.6084 17.9391 13.3517 17.1281 12.315 16.075C11.2427 15.0736 10.4103 13.843 9.88001 12.475C9.85757 12.3922 9.85683 12.305 9.87784 12.2218C9.89886 12.1386 9.94093 12.0622 10 12L11.35 10.385L8.92001 6.81998Z" fill="white"/>
        </g>
    </symbol>
    <symbol id="mail" viewBox="0 0 28 28">
        <g>
	        <circle opacity="0.2" cx="14" cy="14" r="14" fill="white"/>
            <path d="M21.625 7.5625H7.375C7.06006 7.5625 6.75801 7.68761 6.53531 7.91031C6.31261 8.13301 6.1875 8.43506 6.1875 8.75V18.25C6.1875 18.5649 6.31261 18.867 6.53531 19.0897C6.75801 19.3124 7.06006 19.4375 7.375 19.4375H21.625C21.9399 19.4375 22.242 19.3124 22.4647 19.0897C22.6874 18.867 22.8125 18.5649 22.8125 18.25V8.75C22.8125 8.43506 22.6874 8.13301 22.4647 7.91031C22.242 7.68761 21.9399 7.5625 21.625 7.5625ZM20.3187 8.75L14.5 12.7756L8.68125 8.75H20.3187ZM7.375 18.25V9.29031L14.1616 13.9869C14.261 14.0558 14.379 14.0928 14.5 14.0928C14.621 14.0928 14.739 14.0558 14.8384 13.9869L21.625 9.29031V18.25H7.375Z" fill="white"/>
        </g>
    </symbol>
    <symbol id="location" viewBox="0 0 30 30">
        <g>
	        <circle cx="15" cy="15" r="15" fill="white" fill-opacity="0.2"/>
            <path d="M15 15.8039C16.3314 15.8039 17.4107 14.7245 17.4107 13.3931C17.4107 12.0617 16.3314 10.9824 15 10.9824C13.6686 10.9824 12.5893 12.0617 12.5893 13.3931C12.5893 14.7245 13.6686 15.8039 15 15.8039Z" stroke="white" stroke-linecap="round" stroke-linejoin="round" fill="transparent"/>
            <path d="M15 6.96436C13.295 6.96436 11.6599 7.64165 10.4543 8.84724C9.24872 10.0528 8.57143 11.688 8.57143 13.3929C8.57143 14.9133 8.89446 15.9081 9.77678 17.009L15 23.0358L20.2232 17.009C21.1055 15.9081 21.4286 14.9133 21.4286 13.3929C21.4286 11.688 20.7513 10.0528 19.5457 8.84724C18.3401 7.64165 16.705 6.96436 15 6.96436V6.96436Z" stroke="white" stroke-linecap="round" stroke-linejoin="round" fill="transparent"/>
        </g>
    </symbol>
    <symbol id="tw" viewBox="0 0 48 48">
        <g>
	        <!-- <circle cx="24" cy="24" r="24" fill="url(#paint2)"/> -->
            <path d="M37.75 12.7499C36.553 13.5942 35.2276 14.24 33.825 14.6624C33.0722 13.7968 32.0717 13.1832 30.9588 12.9048C29.8459 12.6263 28.6744 12.6964 27.6026 13.1054C26.5308 13.5145 25.6106 14.2429 24.9662 15.192C24.3219 16.1412 23.9846 17.2653 24 18.4124V19.6624C21.8033 19.7193 19.6266 19.2321 17.6638 18.2442C15.7009 17.2562 14.0129 15.7982 12.75 13.9999C12.75 13.9999 7.75 25.2499 19 30.2499C16.4257 31.9973 13.3589 32.8735 10.25 32.7499C21.5 38.9999 35.25 32.7499 35.25 18.3749C35.2488 18.0267 35.2154 17.6794 35.15 17.3374C36.4258 16.0792 37.326 14.4908 37.75 12.7499V12.7499Z" stroke="white" stroke-width="2" stroke-linecap="round" stroke-linejoin="round" fill="transparent"/>
            <defs>
            
            </defs>
        </g>
    </symbol>
    <symbol id="ig" viewBox="0 0 48 48">
        <g>
	        <!-- <circle cx="24" cy="24" r="24" fill="url(#paint3)"/> -->
            <path d="M24.5 10.7929C28.6386 10.7929 29.1288 10.8086 30.7632 10.8831C32.2745 10.9521 33.0952 11.2046 33.6415 11.4169C34.3649 11.6981 34.8812 12.034 35.4236 12.5764C35.9661 13.1188 36.3019 13.6351 36.5831 14.3585C36.7954 14.9048 37.0479 15.7255 37.1169 17.2367C37.1914 18.8712 37.2071 19.3614 37.2071 23.5C37.2071 27.6387 37.1914 28.1289 37.1169 29.7633C37.0479 31.2746 36.7954 32.0952 36.5831 32.6415C36.3019 33.3649 35.966 33.8814 35.4236 34.4237C34.8812 34.9661 34.3649 35.302 33.6415 35.5831C33.0952 35.7954 32.2745 36.048 30.7632 36.1169C29.1291 36.1915 28.6389 36.2072 24.5 36.2072C20.361 36.2072 19.8708 36.1915 18.2367 36.1169C16.7254 36.0479 15.9048 35.7954 15.3585 35.5831C14.6351 35.302 14.1186 34.9661 13.5763 34.4237C13.0339 33.8812 12.698 33.3649 12.4169 32.6415C12.2046 32.0954 11.952 31.2746 11.8831 29.7633C11.8085 28.1289 11.7928 27.6387 11.7928 23.5C11.7928 19.3614 11.8085 18.8712 11.8831 17.2368C11.9521 15.7255 12.2046 14.9048 12.4169 14.3585C12.698 13.6351 13.0339 13.1188 13.5763 12.5764C14.1188 12.0339 14.6351 11.6981 15.3585 11.4169C15.9046 11.2046 16.7254 10.9521 18.2367 10.8831C19.8711 10.8086 20.3613 10.7929 24.5 10.7929ZM24.5 8C20.2904 8 19.7626 8.0178 18.1094 8.09324C16.4595 8.16856 15.3327 8.43061 14.3469 8.81375C13.3275 9.20985 12.4632 9.73987 11.6015 10.6016C10.7398 11.4633 10.2098 12.3276 9.81375 13.3469C9.43049 14.3328 9.16856 15.4596 9.09324 17.1094C9.0178 18.7626 9 19.2904 9 23.5C9 27.7096 9.0178 28.2374 9.09324 29.8906C9.16856 31.5405 9.43049 32.6673 9.81375 33.6531C10.2097 34.6724 10.7398 35.5368 11.6015 36.3985C12.4632 37.2602 13.3275 37.7902 14.3469 38.1863C15.3328 38.5695 16.4595 38.8314 18.1093 38.9068C19.7626 38.9822 20.2904 39 24.5 39C28.7096 39 29.2374 38.9822 30.8906 38.9068C32.5404 38.8314 33.6672 38.5695 34.653 38.1863C35.6723 37.7903 36.5367 37.2602 37.3984 36.3985C38.2601 35.5368 38.7902 34.6725 39.1863 33.6531C39.5694 32.6672 39.8314 31.5405 39.9068 29.8907C39.9822 28.2374 40 27.7096 40 23.5C40 19.2904 39.9822 18.7626 39.9068 17.1094C39.8314 15.4596 39.5694 14.3328 39.1863 13.347C38.7902 12.3276 38.2601 11.4633 37.3984 10.6016C36.5367 9.73987 35.6724 9.20973 34.6531 8.81375C33.6672 8.43061 32.5404 8.16856 30.8906 8.09324C29.2374 8.0178 28.7096 8 24.5 8ZM24.5 15.5405C20.1041 15.5405 16.5405 19.1043 16.5405 23.5C16.5405 27.8959 20.1041 31.4595 24.5 31.4595C28.8958 31.4595 32.4595 27.8959 32.4595 23.5C32.4595 19.1042 28.8958 15.5405 24.5 15.5405ZM24.5 28.6667C21.6465 28.6667 19.3333 26.3535 19.3333 23.5C19.3333 20.6465 21.6465 18.3333 24.5 18.3333C27.3535 18.3333 29.6667 20.6465 29.6667 23.5C29.6667 26.3535 27.3535 28.6667 24.5 28.6667ZM34.6339 15.226C34.6339 16.2534 33.8012 17.086 32.7739 17.086C31.7466 17.086 30.9139 16.2534 30.9139 15.226C30.9139 14.1988 31.7466 13.366 32.7739 13.366C33.8012 13.366 34.6339 14.1988 34.6339 15.226Z" fill="white"/>
            <defs>
            
            </defs>
        </g>
    </symbol>
    <symbol id="vk" viewBox="0 0 48 48">
        <g>
	        <!-- <circle cx="24" cy="24" r="24" fill="url(#paint)"/> -->
            <path d="M39.965 15.4249C40.1983 14.6499 39.965 14.0815 38.8617 14.0815H35.2067C34.2767 14.0815 33.8517 14.5732 33.6183 15.1132C33.6183 15.1132 31.76 19.6449 29.1267 22.5832C28.2767 23.4382 27.8883 23.7082 27.425 23.7082C27.1933 23.7082 26.8567 23.4382 26.8567 22.6632V15.4249C26.8567 14.4949 26.5883 14.0815 25.8133 14.0815H20.07C19.49 14.0815 19.14 14.5115 19.14 14.9215C19.14 15.8015 20.4567 16.0049 20.5917 18.4849V23.8649C20.5917 25.0432 20.38 25.2582 19.9133 25.2582C18.675 25.2582 15.6617 20.7099 13.8733 15.5032C13.525 14.4915 13.1733 14.0832 12.24 14.0832H8.58668C7.54168 14.0832 7.33334 14.5749 7.33334 15.1149C7.33334 16.0849 8.57168 20.8849 13.1017 27.2332C16.1217 31.5682 20.3733 33.9182 24.2467 33.9182C26.5683 33.9182 26.855 33.3965 26.855 32.4965V29.2199C26.855 28.1765 27.0767 27.9665 27.8117 27.9665C28.3517 27.9665 29.2817 28.2399 31.45 30.3282C33.9267 32.8049 34.3367 33.9165 35.7283 33.9165H39.3817C40.425 33.9165 40.9467 33.3949 40.6467 32.3649C40.3183 31.3399 39.135 29.8482 37.565 28.0832C36.7117 27.0765 35.4367 25.9932 35.0483 25.4515C34.5067 24.7532 34.6633 24.4449 35.0483 23.8249C35.05 23.8265 39.5017 17.5565 39.965 15.4249Z" fill="white"/>
            <defs>
            
            </defs>
        </g>
    </symbol>
    <symbol id="fb" viewBox="0 0 48 48">
        <g>
	        <!-- <circle cx="24" cy="24" r="24" fill="url(#paint1)"/> -->
            <path d="M20.5739 38V24.3924H17V19.493H20.5739V15.3082C20.5739 12.0198 22.685 9 27.5494 9C29.5189 9 30.9753 9.19009 30.9753 9.19009L30.8606 13.7653C30.8606 13.7653 29.3753 13.7508 27.7545 13.7508C26.0003 13.7508 25.7193 14.5646 25.7193 15.9155V19.493H31L30.7702 24.3924H25.7193V38H20.5739Z" fill="white"/>
            <defs>
            
            </defs>
        </g>
    </symbol>
    <symbol id="arrow" viewBox="0 0 14 8" >
        <g>
	        <path d="M2 0L7 5L12 0L14 1L7 8L0 1L2 0Z"/>
        </g>
    </symbol>
</svg>